{
	"asset":{
		"version":"2.0",
		"generator":"Created using the official Cinema 4D glTF Exporter 1.000x284978"
	},
	"scenes":[{
		"nodes":[0,
		2,
		4,
		6,
		8,
		14,
		21,
		22,
		29]
	}],
	"nodes":[{
		"name":"毛发",
		"children":[1]
	},
	{
		"name":"__hair_dummy_ignore__",
		"mesh":0
	},
	{
		"name":"毛发",
		"children":[3]
	},
	{
		"name":"__hair_dummy_ignore__",
		"mesh":1
	},
	{
		"name":"毛发",
		"children":[5]
	},
	{
		"name":"__hair_dummy_ignore__",
		"mesh":2
	},
	{
		"name":"毛发",
		"children":[7]
	},
	{
		"name":"__hair_dummy_ignore__",
		"mesh":3
	},
	{
		"name":"空白",
		"translation":[0.0,
		0.0,
		0.0],
		"rotation":[-0.5,
		-0.5,
		0.5,
		-0.5],
		"scale":[1.0,
		1.0,
		1.0],
		"children":[9,
		10,
		11,
		12,
		13]
	},
	{
		"name":"胶囊.4",
		"translation":[38.19925308227539,
		-2.339029814832968e-15,
		392.46197509765627],
		"rotation":[0.5,
		0.5,
		-0.5,
		-0.5],
		"scale":[1.0,
		1.0,
		1.0],
		"mesh":4
	},
	{
		"name":"胶囊.3",
		"translation":[-30.483356475830079,
		1.866567330590491e-15,
		392.46197509765627],
		"rotation":[0.5,
		0.5,
		-0.5,
		-0.5],
		"scale":[1.0,
		1.0,
		1.0],
		"mesh":5
	},
	{
		"name":"胶囊.2",
		"translation":[71.74435424804688,
		0.3043418228626251,
		167.36927795410157],
		"rotation":[0.5413907170295715,
		-0.6697922348976135,
		0.43944868445396426,
		-0.25526320934295657],
		"scale":[1.0,
		1.0,
		1.0],
		"mesh":6
	},
	{
		"name":"胶囊.1",
		"translation":[-70.83435821533203,
		4.337353332127102e-15,
		169.666015625],
		"rotation":[0.6158027052879334,
		0.6158027052879334,
		-0.3475443124771118,
		-0.3475443124771118],
		"scale":[1.0,
		1.0,
		1.0],
		"mesh":7
	},
	{
		"name":"胶囊",
		"translation":[1.2169737399346688e-14,
		-7.45181509974965e-31,
		198.7469024658203],
		"rotation":[0.5,
		0.5,
		-0.5,
		-0.5],
		"scale":[1.0,
		1.0,
		1.0],
		"mesh":8
	},
	{
		"name":"布尔.1",
		"translation":[63.82729721069336,
		25.38949966430664,
		42.75227355957031],
		"rotation":[0.11026807874441147,
		-0.04831188917160034,
		-0.44355982542037966,
		0.8881224989891052],
		"scale":[1.0,
		1.0,
		1.0],
		"children":[15,
		16]
	},
	{
		"name":"圆柱体",
		"mesh":9
	},
	{
		"name":"阵列",
		"translation":[-0.04344415292143822,
		1.1546319456101628e-14,
		0.11240089684724808],
		"rotation":[0.0,
		0.0,
		0.0,
		-1.0],
		"scale":[1.0,
		1.0,
		1.0],
		"children":[17,
		18,
		19,
		20]
	},
	{
		"name":"圆柱体.1.4",
		"translation":[8.1601392309949e-15,
		3.552713678800501e-15,
		-9.059419631958008],
		"rotation":[0.0,
		0.0,
		0.0,
		-1.0],
		"scale":[1.0,
		1.0,
		1.0],
		"mesh":10
	},
	{
		"name":"圆柱体.1.3",
		"translation":[9.059419631958008,
		3.552713678800501e-15,
		0.0],
		"rotation":[3.097252733996194e-17,
		-0.7071067690849304,
		3.097252733996194e-17,
		0.7071067690849304],
		"scale":[1.0,
		1.0,
		1.0],
		"mesh":11
	},
	{
		"name":"圆柱体.1.2",
		"translation":[4.9960036108132048e-15,
		5.3290705182007517e-15,
		9.059419631958008],
		"rotation":[0.0,
		-1.0,
		0.0,
		-6.123234262925839e-17],
		"scale":[1.0,
		1.0,
		1.0],
		"mesh":12
	},
	{
		"name":"圆柱体.1.1",
		"translation":[-9.059419631958008,
		3.552713678800501e-15,
		-7.105427357601002e-15],
		"rotation":[0.0,
		-0.7071067690849304,
		0.0,
		-0.7071067690849304],
		"scale":[1.0,
		1.0,
		1.0],
		"mesh":13
	},
	{
		"name":"球体",
		"translation":[92.61128997802735,
		-6.850320339202881,
		-1.9036887884140015],
		"rotation":[0.0,
		0.0,
		0.1194942370057106,
		0.9928348660469055],
		"scale":[1.0,
		1.0,
		1.0],
		"mesh":14
	},
	{
		"name":"布尔",
		"translation":[62.09724044799805,
		27.434755325317384,
		-44.13246154785156],
		"rotation":[0.05698367953300476,
		-0.053567394614219668,
		0.5110679864883423,
		-0.8559748530387878],
		"scale":[1.0,
		1.0,
		1.0],
		"children":[23,
		24]
	},
	{
		"name":"圆柱体",
		"mesh":15
	},
	{
		"name":"阵列",
		"translation":[-0.04344415292143822,
		1.1546319456101628e-14,
		0.11240089684724808],
		"rotation":[0.0,
		0.0,
		0.0,
		-1.0],
		"scale":[1.0,
		1.0,
		1.0],
		"children":[25,
		26,
		27,
		28]
	},
	{
		"name":"圆柱体.1.4",
		"translation":[-6.217248937900877e-15,
		7.105427357601002e-15,
		-9.059419631958008],
		"rotation":[0.0,
		0.0,
		0.0,
		-1.0],
		"scale":[1.0,
		1.0,
		1.0],
		"mesh":16
	},
	{
		"name":"圆柱体.1.3",
		"translation":[9.059419631958008,
		9.769962616701378e-15,
		7.105427357601002e-15],
		"rotation":[0.0,
		-0.7071067690849304,
		0.0,
		0.7071067690849304],
		"scale":[1.0,
		1.0,
		1.0],
		"mesh":17
	},
	{
		"name":"圆柱体.1.2",
		"translation":[-6.661338147750939e-16,
		7.105427357601002e-15,
		9.059419631958008],
		"rotation":[0.0,
		-1.0,
		0.0,
		-6.123234262925839e-17],
		"scale":[1.0,
		1.0,
		1.0],
		"mesh":18
	},
	{
		"name":"圆柱体.1.1",
		"translation":[-9.059419631958008,
		9.769962616701378e-15,
		-7.105427357601002e-15],
		"rotation":[0.0,
		-0.7071067690849304,
		0.0,
		-0.7071067690849304],
		"scale":[1.0,
		1.0,
		1.0],
		"mesh":19
	},
	{
		"name":"对称",
		"children":[30]
	},
	{
		"name":"球体",
		"mesh":20
	}],
	"meshes":[{
		"name":"__hair_dummy_ignore__",
		"primitives":[{
			"attributes":{
				"POSITION":1
			},
			"indices":0,
			"material":0
		}]
	},
	{
		"name":"__hair_dummy_ignore__",
		"primitives":[{
			"attributes":{
				"POSITION":3
			},
			"indices":2,
			"material":1
		}]
	},
	{
		"name":"__hair_dummy_ignore__",
		"primitives":[{
			"attributes":{
				"POSITION":5
			},
			"indices":4,
			"material":2
		}]
	},
	{
		"name":"__hair_dummy_ignore__",
		"primitives":[{
			"attributes":{
				"POSITION":7
			},
			"indices":6,
			"material":3
		}]
	},
	{
		"name":"胶囊.4",
		"primitives":[{
			"attributes":{
				"NORMAL":10,
				"POSITION":9,
				"TEXCOORD_0":11
			},
			"indices":8
		}]
	},
	{
		"name":"胶囊.3",
		"primitives":[{
			"attributes":{
				"NORMAL":14,
				"POSITION":13,
				"TEXCOORD_0":15
			},
			"indices":12
		}]
	},
	{
		"name":"胶囊.2",
		"primitives":[{
			"attributes":{
				"NORMAL":18,
				"POSITION":17,
				"TEXCOORD_0":19
			},
			"indices":16
		}]
	},
	{
		"name":"胶囊.1",
		"primitives":[{
			"attributes":{
				"NORMAL":22,
				"POSITION":21,
				"TEXCOORD_0":23
			},
			"indices":20
		}]
	},
	{
		"name":"胶囊",
		"primitives":[{
			"attributes":{
				"NORMAL":26,
				"POSITION":25,
				"TEXCOORD_0":27
			},
			"indices":24
		}]
	},
	{
		"name":"圆柱体",
		"primitives":[{
			"attributes":{
				"NORMAL":30,
				"POSITION":29,
				"TEXCOORD_0":31
			},
			"indices":28
		}]
	},
	{
		"name":"圆柱体.1.4",
		"primitives":[{
			"attributes":{
				"NORMAL":34,
				"POSITION":33,
				"TEXCOORD_0":35
			},
			"indices":32
		}]
	},
	{
		"name":"圆柱体.1.3",
		"primitives":[{
			"attributes":{
				"NORMAL":38,
				"POSITION":37,
				"TEXCOORD_0":39
			},
			"indices":36
		}]
	},
	{
		"name":"圆柱体.1.2",
		"primitives":[{
			"attributes":{
				"NORMAL":42,
				"POSITION":41,
				"TEXCOORD_0":43
			},
			"indices":40
		}]
	},
	{
		"name":"圆柱体.1.1",
		"primitives":[{
			"attributes":{
				"NORMAL":46,
				"POSITION":45,
				"TEXCOORD_0":47
			},
			"indices":44
		}]
	},
	{
		"name":"球体",
		"primitives":[{
			"attributes":{
				"NORMAL":50,
				"POSITION":49,
				"TEXCOORD_0":51
			},
			"indices":48
		}]
	},
	{
		"name":"圆柱体",
		"primitives":[{
			"attributes":{
				"NORMAL":54,
				"POSITION":53,
				"TEXCOORD_0":55
			},
			"indices":52
		}]
	},
	{
		"name":"圆柱体.1.4",
		"primitives":[{
			"attributes":{
				"NORMAL":58,
				"POSITION":57,
				"TEXCOORD_0":59
			},
			"indices":56
		}]
	},
	{
		"name":"圆柱体.1.3",
		"primitives":[{
			"attributes":{
				"NORMAL":62,
				"POSITION":61,
				"TEXCOORD_0":63
			},
			"indices":60
		}]
	},
	{
		"name":"圆柱体.1.2",
		"primitives":[{
			"attributes":{
				"NORMAL":66,
				"POSITION":65,
				"TEXCOORD_0":67
			},
			"indices":64
		}]
	},
	{
		"name":"圆柱体.1.1",
		"primitives":[{
			"attributes":{
				"NORMAL":70,
				"POSITION":69,
				"TEXCOORD_0":71
			},
			"indices":68
		}]
	},
	{
		"name":"球体",
		"primitives":[{
			"attributes":{
				"NORMAL":74,
				"POSITION":73,
				"TEXCOORD_0":75
			},
			"indices":72
		}]
	}],
	"accessors":[{
		"bufferView":0,
		"type":"SCALAR",
		"componentType":5123,
		"count":3,
		"byteOffset":0,
		"max":[2],
		"min":[0]
	},
	{
		"bufferView":1,
		"type":"VEC3",
		"componentType":5126,
		"count":3,
		"byteOffset":0,
		"max":[1.0,
		1.0,
		0.0],
		"min":[0.0,
		0.0,
		0.0]
	},
	{
		"bufferView":2,
		"type":"SCALAR",
		"componentType":5123,
		"count":3,
		"byteOffset":0,
		"max":[2],
		"min":[0]
	},
	{
		"bufferView":3,
		"type":"VEC3",
		"componentType":5126,
		"count":3,
		"byteOffset":0,
		"max":[1.0,
		1.0,
		0.0],
		"min":[0.0,
		0.0,
		0.0]
	},
	{
		"bufferView":4,
		"type":"SCALAR",
		"componentType":5123,
		"count":3,
		"byteOffset":0,
		"max":[2],
		"min":[0]
	},
	{
		"bufferView":5,
		"type":"VEC3",
		"componentType":5126,
		"count":3,
		"byteOffset":0,
		"max":[1.0,
		1.0,
		0.0],
		"min":[0.0,
		0.0,
		0.0]
	},
	{
		"bufferView":6,
		"type":"SCALAR",
		"componentType":5123,
		"count":3,
		"byteOffset":0,
		"max":[2],
		"min":[0]
	},
	{
		"bufferView":7,
		"type":"VEC3",
		"componentType":5126,
		"count":3,
		"byteOffset":0,
		"max":[1.0,
		1.0,
		0.0],
		"min":[0.0,
		0.0,
		0.0]
	},
	{
		"bufferView":8,
		"type":"SCALAR",
		"componentType":5123,
		"count":1056,
		"byteOffset":0,
		"max":[218],
		"min":[0]
	},
	{
		"bufferView":9,
		"type":"VEC3",
		"componentType":5126,
		"count":219,
		"byteOffset":0,
		"max":[28.679725646972658,
		122.89897918701172,
		32.64075469970703],
		"min":[-28.679725646972658,
		-155.06202697753907,
		-30.66183853149414]
	},
	{
		"bufferView":9,
		"type":"VEC3",
		"componentType":5126,
		"count":219,
		"byteOffset":12,
		"max":[0.9977216124534607,
		0.9790807962417603,
		0.9999510049819946],
		"min":[-0.9979512691497803,
		-1.0,
		-0.9930049180984497]
	},
	{
		"bufferView":9,
		"type":"VEC2",
		"componentType":5126,
		"count":219,
		"byteOffset":24,
		"max":[1.0,
		1.0],
		"min":[0.0,
		0.0]
	},
	{
		"bufferView":10,
		"type":"SCALAR",
		"componentType":5123,
		"count":1056,
		"byteOffset":0,
		"max":[218],
		"min":[0]
	},
	{
		"bufferView":11,
		"type":"VEC3",
		"componentType":5126,
		"count":219,
		"byteOffset":0,
		"max":[28.679725646972658,
		123.19583129882813,
		30.66183853149414],
		"min":[-28.679725646972658,
		-155.06202697753907,
		-30.66183853149414]
	},
	{
		"bufferView":11,
		"type":"VEC3",
		"componentType":5126,
		"count":219,
		"byteOffset":12,
		"max":[0.9978575706481934,
		0.9821082949638367,
		0.9966757297515869],
		"min":[-0.997816801071167,
		-1.0,
		-0.9998089075088501]
	},
	{
		"bufferView":11,
		"type":"VEC2",
		"componentType":5126,
		"count":219,
		"byteOffset":24,
		"max":[1.0,
		1.0],
		"min":[0.0,
		0.0]
	},
	{
		"bufferView":12,
		"type":"SCALAR",
		"componentType":5123,
		"count":1056,
		"byteOffset":0,
		"max":[396],
		"min":[0]
	},
	{
		"bufferView":13,
		"type":"VEC3",
		"componentType":5126,
		"count":397,
		"byteOffset":0,
		"max":[19.087644577026368,
		87.5844497680664,
		15.72935676574707],
		"min":[-19.087644577026368,
		-72.6789779663086,
		-27.662784576416017]
	},
	{
		"bufferView":13,
		"type":"VEC3",
		"componentType":5126,
		"count":397,
		"byteOffset":12,
		"max":[0.9994385242462158,
		0.9999999403953552,
		0.9994296431541443],
		"min":[-0.9998020529747009,
		-0.9408739805221558,
		-0.9962916970252991]
	},
	{
		"bufferView":13,
		"type":"VEC2",
		"componentType":5126,
		"count":397,
		"byteOffset":24,
		"max":[1.0,
		1.0],
		"min":[0.0,
		0.0]
	},
	{
		"bufferView":14,
		"type":"SCALAR",
		"componentType":5123,
		"count":1056,
		"byteOffset":0,
		"max":[396],
		"min":[0]
	},
	{
		"bufferView":15,
		"type":"VEC3",
		"componentType":5126,
		"count":397,
		"byteOffset":0,
		"max":[19.087644577026368,
		87.5844497680664,
		15.72935676574707],
		"min":[-19.087644577026368,
		-72.6789779663086,
		-27.662784576416017]
	},
	{
		"bufferView":15,
		"type":"VEC3",
		"componentType":5126,
		"count":397,
		"byteOffset":12,
		"max":[0.9994385242462158,
		0.9999999403953552,
		0.9994296431541443],
		"min":[-0.9998020529747009,
		-0.9408739805221558,
		-0.9962916970252991]
	},
	{
		"bufferView":15,
		"type":"VEC2",
		"componentType":5126,
		"count":397,
		"byteOffset":24,
		"max":[1.0,
		1.0],
		"min":[0.0,
		0.0]
	},
	{
		"bufferView":16,
		"type":"SCALAR",
		"componentType":5123,
		"count":1056,
		"byteOffset":0,
		"max":[218],
		"min":[0]
	},
	{
		"bufferView":17,
		"type":"VEC3",
		"componentType":5126,
		"count":219,
		"byteOffset":0,
		"max":[73.17281341552735,
		138.91879272460938,
		73.2232894897461],
		"min":[-73.17281341552735,
		-117.52804565429688,
		-73.2232894897461]
	},
	{
		"bufferView":17,
		"type":"VEC3",
		"componentType":5126,
		"count":219,
		"byteOffset":12,
		"max":[0.9978781342506409,
		1.0,
		0.9992632269859314],
		"min":[-0.9978781342506409,
		-0.9999999403953552,
		-0.9992632269859314]
	},
	{
		"bufferView":17,
		"type":"VEC2",
		"componentType":5126,
		"count":219,
		"byteOffset":24,
		"max":[1.0,
		1.0],
		"min":[0.0,
		0.0]
	},
	{
		"bufferView":18,
		"type":"SCALAR",
		"componentType":5123,
		"count":1248,
		"byteOffset":0,
		"max":[328],
		"min":[0]
	},
	{
		"bufferView":19,
		"type":"VEC3",
		"componentType":5126,
		"count":329,
		"byteOffset":0,
		"max":[20.96546173095703,
		2.706019401550293,
		20.473966598510743],
		"min":[-20.96546173095703,
		-2.706019401550293,
		-20.473966598510743]
	},
	{
		"bufferView":19,
		"type":"VEC3",
		"componentType":5126,
		"count":329,
		"byteOffset":12,
		"max":[1.0,
		1.0,
		1.0],
		"min":[-1.0,
		-1.0,
		-1.0]
	},
	{
		"bufferView":19,
		"type":"VEC2",
		"componentType":5126,
		"count":329,
		"byteOffset":24,
		"max":[1.0,
		1.0],
		"min":[0.0,
		0.0]
	},
	{
		"bufferView":20,
		"type":"SCALAR",
		"componentType":5123,
		"count":228,
		"byteOffset":0,
		"max":[62],
		"min":[0]
	},
	{
		"bufferView":21,
		"type":"VEC3",
		"componentType":5126,
		"count":63,
		"byteOffset":0,
		"max":[4.315920352935791,
		1.3877836465835572,
		4.315920352935791],
		"min":[-4.315920352935791,
		-1.3877836465835572,
		-4.315920352935791]
	},
	{
		"bufferView":21,
		"type":"VEC3",
		"componentType":5126,
		"count":63,
		"byteOffset":12,
		"max":[0.9999999403953552,
		7.731094342489087e-8,
		1.0],
		"min":[-1.0,
		-1.3096814655000345e-7,
		-1.0]
	},
	{
		"bufferView":21,
		"type":"VEC2",
		"componentType":5126,
		"count":63,
		"byteOffset":24,
		"max":[1.0,
		0.5803874731063843],
		"min":[0.0,
		0.4196125268936157]
	},
	{
		"bufferView":22,
		"type":"SCALAR",
		"componentType":5123,
		"count":228,
		"byteOffset":0,
		"max":[62],
		"min":[0]
	},
	{
		"bufferView":23,
		"type":"VEC3",
		"componentType":5126,
		"count":63,
		"byteOffset":0,
		"max":[4.315920352935791,
		1.3877836465835572,
		4.315920352935791],
		"min":[-4.315920352935791,
		-1.3877836465835572,
		-4.315920352935791]
	},
	{
		"bufferView":23,
		"type":"VEC3",
		"componentType":5126,
		"count":63,
		"byteOffset":12,
		"max":[0.9999999403953552,
		0.000002307167505932739,
		1.0],
		"min":[-1.0,
		-0.000002307167505932739,
		-1.0]
	},
	{
		"bufferView":23,
		"type":"VEC2",
		"componentType":5126,
		"count":63,
		"byteOffset":24,
		"max":[1.0,
		0.5803874731063843],
		"min":[0.0,
		0.4196125268936157]
	},
	{
		"bufferView":24,
		"type":"SCALAR",
		"componentType":5123,
		"count":228,
		"byteOffset":0,
		"max":[62],
		"min":[0]
	},
	{
		"bufferView":25,
		"type":"VEC3",
		"componentType":5126,
		"count":63,
		"byteOffset":0,
		"max":[4.315920352935791,
		1.3877836465835572,
		4.315920352935791],
		"min":[-4.315920352935791,
		-1.3877836465835572,
		-4.315920352935791]
	},
	{
		"bufferView":25,
		"type":"VEC3",
		"componentType":5126,
		"count":63,
		"byteOffset":12,
		"max":[1.0,
		2.308093911551623e-7,
		1.0],
		"min":[-1.0,
		-0.000004408741006045602,
		-1.0]
	},
	{
		"bufferView":25,
		"type":"VEC2",
		"componentType":5126,
		"count":63,
		"byteOffset":24,
		"max":[1.0,
		0.5803874731063843],
		"min":[0.0,
		0.4196125268936157]
	},
	{
		"bufferView":26,
		"type":"SCALAR",
		"componentType":5123,
		"count":228,
		"byteOffset":0,
		"max":[62],
		"min":[0]
	},
	{
		"bufferView":27,
		"type":"VEC3",
		"componentType":5126,
		"count":63,
		"byteOffset":0,
		"max":[4.315920352935791,
		1.3877836465835572,
		4.315920352935791],
		"min":[-4.315920352935791,
		-1.3877836465835572,
		-4.315920352935791]
	},
	{
		"bufferView":27,
		"type":"VEC3",
		"componentType":5126,
		"count":63,
		"byteOffset":12,
		"max":[0.9999999403953552,
		2.9180438332332417e-7,
		1.0],
		"min":[-0.9999999403953552,
		-2.9180438332332417e-7,
		-1.0]
	},
	{
		"bufferView":27,
		"type":"VEC2",
		"componentType":5126,
		"count":63,
		"byteOffset":24,
		"max":[1.0,
		0.5803874731063843],
		"min":[0.0,
		0.4196125268936157]
	},
	{
		"bufferView":28,
		"type":"SCALAR",
		"componentType":5123,
		"count":672,
		"byteOffset":0,
		"max":[154],
		"min":[0]
	},
	{
		"bufferView":29,
		"type":"VEC3",
		"componentType":5126,
		"count":155,
		"byteOffset":0,
		"max":[9.772340774536133,
		11.409344673156739,
		12.2461519241333],
		"min":[-7.1935133934021,
		-7.6758527755737309,
		-11.291756629943848]
	},
	{
		"bufferView":29,
		"type":"VEC3",
		"componentType":5126,
		"count":155,
		"byteOffset":12,
		"max":[0.9989041686058044,
		0.9997621178627014,
		0.9811553359031677],
		"min":[-0.9997948408126831,
		-0.9998811483383179,
		-0.9906935691833496]
	},
	{
		"bufferView":29,
		"type":"VEC2",
		"componentType":5126,
		"count":155,
		"byteOffset":24,
		"max":[1.0,
		1.0],
		"min":[0.0,
		0.0]
	},
	{
		"bufferView":30,
		"type":"SCALAR",
		"componentType":5123,
		"count":1248,
		"byteOffset":0,
		"max":[328],
		"min":[0]
	},
	{
		"bufferView":31,
		"type":"VEC3",
		"componentType":5126,
		"count":329,
		"byteOffset":0,
		"max":[20.96546173095703,
		2.706019401550293,
		20.473966598510743],
		"min":[-20.96546173095703,
		-2.706019401550293,
		-20.473966598510743]
	},
	{
		"bufferView":31,
		"type":"VEC3",
		"componentType":5126,
		"count":329,
		"byteOffset":12,
		"max":[1.0,
		1.0,
		1.0],
		"min":[-1.0,
		-1.0,
		-1.0]
	},
	{
		"bufferView":31,
		"type":"VEC2",
		"componentType":5126,
		"count":329,
		"byteOffset":24,
		"max":[1.0,
		1.0],
		"min":[0.0,
		0.0]
	},
	{
		"bufferView":32,
		"type":"SCALAR",
		"componentType":5123,
		"count":228,
		"byteOffset":0,
		"max":[62],
		"min":[0]
	},
	{
		"bufferView":33,
		"type":"VEC3",
		"componentType":5126,
		"count":63,
		"byteOffset":0,
		"max":[4.315920352935791,
		1.3877836465835572,
		4.315920352935791],
		"min":[-4.315920352935791,
		-1.3877836465835572,
		-4.315920352935791]
	},
	{
		"bufferView":33,
		"type":"VEC3",
		"componentType":5126,
		"count":63,
		"byteOffset":12,
		"max":[0.9999999403953552,
		7.731094342489087e-8,
		1.0],
		"min":[-1.0,
		-1.3096814655000345e-7,
		-1.0]
	},
	{
		"bufferView":33,
		"type":"VEC2",
		"componentType":5126,
		"count":63,
		"byteOffset":24,
		"max":[1.0,
		0.5803874731063843],
		"min":[0.0,
		0.4196125268936157]
	},
	{
		"bufferView":34,
		"type":"SCALAR",
		"componentType":5123,
		"count":228,
		"byteOffset":0,
		"max":[62],
		"min":[0]
	},
	{
		"bufferView":35,
		"type":"VEC3",
		"componentType":5126,
		"count":63,
		"byteOffset":0,
		"max":[4.315920352935791,
		1.3877836465835572,
		4.315920352935791],
		"min":[-4.315920352935791,
		-1.3877836465835572,
		-4.315920352935791]
	},
	{
		"bufferView":35,
		"type":"VEC3",
		"componentType":5126,
		"count":63,
		"byteOffset":12,
		"max":[0.9999999403953552,
		0.000002307167505932739,
		1.0],
		"min":[-1.0,
		-0.000002307167505932739,
		-1.0]
	},
	{
		"bufferView":35,
		"type":"VEC2",
		"componentType":5126,
		"count":63,
		"byteOffset":24,
		"max":[1.0,
		0.5803874731063843],
		"min":[0.0,
		0.4196125268936157]
	},
	{
		"bufferView":36,
		"type":"SCALAR",
		"componentType":5123,
		"count":228,
		"byteOffset":0,
		"max":[62],
		"min":[0]
	},
	{
		"bufferView":37,
		"type":"VEC3",
		"componentType":5126,
		"count":63,
		"byteOffset":0,
		"max":[4.315920352935791,
		1.3877836465835572,
		4.315920352935791],
		"min":[-4.315920352935791,
		-1.3877836465835572,
		-4.315920352935791]
	},
	{
		"bufferView":37,
		"type":"VEC3",
		"componentType":5126,
		"count":63,
		"byteOffset":12,
		"max":[1.0,
		2.308093911551623e-7,
		1.0],
		"min":[-1.0,
		-0.000004408741006045602,
		-1.0]
	},
	{
		"bufferView":37,
		"type":"VEC2",
		"componentType":5126,
		"count":63,
		"byteOffset":24,
		"max":[1.0,
		0.5803874731063843],
		"min":[0.0,
		0.4196125268936157]
	},
	{
		"bufferView":38,
		"type":"SCALAR",
		"componentType":5123,
		"count":228,
		"byteOffset":0,
		"max":[62],
		"min":[0]
	},
	{
		"bufferView":39,
		"type":"VEC3",
		"componentType":5126,
		"count":63,
		"byteOffset":0,
		"max":[4.315920352935791,
		1.3877836465835572,
		4.315920352935791],
		"min":[-4.315920352935791,
		-1.3877836465835572,
		-4.315920352935791]
	},
	{
		"bufferView":39,
		"type":"VEC3",
		"componentType":5126,
		"count":63,
		"byteOffset":12,
		"max":[0.9999999403953552,
		2.9180438332332417e-7,
		1.0],
		"min":[-0.9999999403953552,
		-2.9180438332332417e-7,
		-1.0]
	},
	{
		"bufferView":39,
		"type":"VEC2",
		"componentType":5126,
		"count":63,
		"byteOffset":24,
		"max":[1.0,
		0.5803874731063843],
		"min":[0.0,
		0.4196125268936157]
	},
	{
		"bufferView":40,
		"type":"SCALAR",
		"componentType":5123,
		"count":5316,
		"byteOffset":0,
		"max":[1069],
		"min":[0]
	},
	{
		"bufferView":41,
		"type":"VEC3",
		"componentType":5126,
		"count":1070,
		"byteOffset":0,
		"max":[98.06803131103516,
		225.6575469970703,
		99.44154357910156],
		"min":[-99.72038269042969,
		-100.0,
		-99.44154357910156]
	},
	{
		"bufferView":41,
		"type":"VEC3",
		"componentType":5126,
		"count":1070,
		"byteOffset":12,
		"max":[0.99862140417099,
		1.0,
		0.9978744983673096],
		"min":[-0.9987589120864868,
		-1.0,
		-0.9978744983673096]
	},
	{
		"bufferView":41,
		"type":"VEC2",
		"componentType":5126,
		"count":1070,
		"byteOffset":24,
		"max":[0.5,
		1.0],
		"min":[0.0,
		0.0]
	}],
	"bufferViews":[{
		"buffer":0,
		"byteOffset":0,
		"byteLength":6,
		"target":34963
	},
	{
		"buffer":0,
		"byteOffset":8,
		"byteLength":36,
		"target":34962
	},
	{
		"buffer":1,
		"byteOffset":0,
		"byteLength":6,
		"target":34963
	},
	{
		"buffer":1,
		"byteOffset":8,
		"byteLength":36,
		"target":34962
	},
	{
		"buffer":2,
		"byteOffset":0,
		"byteLength":6,
		"target":34963
	},
	{
		"buffer":2,
		"byteOffset":8,
		"byteLength":36,
		"target":34962
	},
	{
		"buffer":3,
		"byteOffset":0,
		"byteLength":6,
		"target":34963
	},
	{
		"buffer":3,
		"byteOffset":8,
		"byteLength":36,
		"target":34962
	},
	{
		"buffer":4,
		"byteOffset":0,
		"byteLength":2112,
		"target":34963
	},
	{
		"buffer":4,
		"byteOffset":2112,
		"byteLength":7008,
		"target":34962,
		"byteStride":32
	},
	{
		"buffer":5,
		"byteOffset":0,
		"byteLength":2112,
		"target":34963
	},
	{
		"buffer":5,
		"byteOffset":2112,
		"byteLength":7008,
		"target":34962,
		"byteStride":32
	},
	{
		"buffer":6,
		"byteOffset":0,
		"byteLength":2112,
		"target":34963
	},
	{
		"buffer":6,
		"byteOffset":2112,
		"byteLength":12704,
		"target":34962,
		"byteStride":32
	},
	{
		"buffer":7,
		"byteOffset":0,
		"byteLength":2112,
		"target":34963
	},
	{
		"buffer":7,
		"byteOffset":2112,
		"byteLength":12704,
		"target":34962,
		"byteStride":32
	},
	{
		"buffer":8,
		"byteOffset":0,
		"byteLength":2112,
		"target":34963
	},
	{
		"buffer":8,
		"byteOffset":2112,
		"byteLength":7008,
		"target":34962,
		"byteStride":32
	},
	{
		"buffer":9,
		"byteOffset":0,
		"byteLength":2496,
		"target":34963
	},
	{
		"buffer":9,
		"byteOffset":2496,
		"byteLength":10528,
		"target":34962,
		"byteStride":32
	},
	{
		"buffer":10,
		"byteOffset":0,
		"byteLength":456,
		"target":34963
	},
	{
		"buffer":10,
		"byteOffset":456,
		"byteLength":2016,
		"target":34962,
		"byteStride":32
	},
	{
		"buffer":11,
		"byteOffset":0,
		"byteLength":456,
		"target":34963
	},
	{
		"buffer":11,
		"byteOffset":456,
		"byteLength":2016,
		"target":34962,
		"byteStride":32
	},
	{
		"buffer":12,
		"byteOffset":0,
		"byteLength":456,
		"target":34963
	},
	{
		"buffer":12,
		"byteOffset":456,
		"byteLength":2016,
		"target":34962,
		"byteStride":32
	},
	{
		"buffer":13,
		"byteOffset":0,
		"byteLength":456,
		"target":34963
	},
	{
		"buffer":13,
		"byteOffset":456,
		"byteLength":2016,
		"target":34962,
		"byteStride":32
	},
	{
		"buffer":14,
		"byteOffset":0,
		"byteLength":1344,
		"target":34963
	},
	{
		"buffer":14,
		"byteOffset":1344,
		"byteLength":4960,
		"target":34962,
		"byteStride":32
	},
	{
		"buffer":15,
		"byteOffset":0,
		"byteLength":2496,
		"target":34963
	},
	{
		"buffer":15,
		"byteOffset":2496,
		"byteLength":10528,
		"target":34962,
		"byteStride":32
	},
	{
		"buffer":16,
		"byteOffset":0,
		"byteLength":456,
		"target":34963
	},
	{
		"buffer":16,
		"byteOffset":456,
		"byteLength":2016,
		"target":34962,
		"byteStride":32
	},
	{
		"buffer":17,
		"byteOffset":0,
		"byteLength":456,
		"target":34963
	},
	{
		"buffer":17,
		"byteOffset":456,
		"byteLength":2016,
		"target":34962,
		"byteStride":32
	},
	{
		"buffer":18,
		"byteOffset":0,
		"byteLength":456,
		"target":34963
	},
	{
		"buffer":18,
		"byteOffset":456,
		"byteLength":2016,
		"target":34962,
		"byteStride":32
	},
	{
		"buffer":19,
		"byteOffset":0,
		"byteLength":456,
		"target":34963
	},
	{
		"buffer":19,
		"byteOffset":456,
		"byteLength":2016,
		"target":34962,
		"byteStride":32
	},
	{
		"buffer":20,
		"byteOffset":0,
		"byteLength":10632,
		"target":34963
	},
	{
		"buffer":20,
		"byteOffset":10632,
		"byteLength":34240,
		"target":34962,
		"byteStride":32
	}],
	"buffers":[{
		"uri":"data:application/octet-stream;base64,",
		"byteLength":44
	},
	{
		"uri":"data:application/octet-stream;base64,",
		"byteLength":44
	},
	{
		"uri":"data:application/octet-stream;base64,",
		"byteLength":44
	},
	{
		"uri":"data:application/octet-stream;base64,",
		"byteLength":44
	},
	{
		"uri":"data:application/octet-stream;base64,",
		"byteLength":9120
	},
	{
		"uri":"data:application/octet-stream;base64,",
		"byteLength":9120
	},
	{
		"uri":"data:application/octet-stream;base64,",
		"byteLength":14816
	},
	{
		"uri":"data:application/octet-stream;base64,",
		"byteLength":14816
	},
	{
		"uri":"data:application/octet-stream;base64,",
		"byteLength":9120
	},
	{
		"uri":"data:application/octet-stream;base64,",
		"byteLength":13024
	},
	{
		"uri":"data:application/octet-stream;base64,",
		"byteLength":2472
	},
	{
		"uri":"data:application/octet-stream;base64,",
		"byteLength":2472
	},
	{
		"uri":"data:application/octet-stream;base64,",
		"byteLength":2472
	},
	{
		"uri":"data:application/octet-stream;base64,",
		"byteLength":2472
	},
	{
		"uri":"data:application/octet-stream;base64,",
		"byteLength":6304
	},
	{
		"uri":"data:application/octet-stream;base64,",
		"byteLength":13024
	},
	{
		"uri":"data:application/octet-stream;base64,",
		"byteLength":2472
	},
	{
		"uri":"data:application/octet-stream;base64,",
		"byteLength":2472
	},
	{
		"uri":"data:application/octet-stream;base64,",
		"byteLength":2472
	},
	{
		"uri":"data:application/octet-stream;base64,",
		"byteLength":2472
	},
	{
		"uri":"data:application/octet-stream;base64,",
		"byteLength":44872
	}],
	"materials":[{
		"pbrMetallicRoughness":{
			"baseColorFactor":[1.0,
			1.0,
			1.0,
			1.0],
			"metallicFactor":1.0,
			"roughnessFactor":1.0
		},
		"emissiveFactor":[0.0,
		0.0,
		0.0],
		"alphaMode":"OPAQUE",
		"doubleSided":false,
		"name":""
	},
	{
		"pbrMetallicRoughness":{
			"baseColorFactor":[1.0,
			1.0,
			1.0,
			1.0],
			"metallicFactor":1.0,
			"roughnessFactor":1.0
		},
		"emissiveFactor":[0.0,
		0.0,
		0.0],
		"alphaMode":"OPAQUE",
		"doubleSided":false,
		"name":""
	},
	{
		"pbrMetallicRoughness":{
			"baseColorFactor":[1.0,
			1.0,
			1.0,
			1.0],
			"metallicFactor":1.0,
			"roughnessFactor":1.0
		},
		"emissiveFactor":[0.0,
		0.0,
		0.0],
		"alphaMode":"OPAQUE",
		"doubleSided":false,
		"name":""
	},
	{
		"pbrMetallicRoughness":{
			"baseColorFactor":[1.0,
			1.0,
			1.0,
			1.0],
			"metallicFactor":1.0,
			"roughnessFactor":1.0
		},
		"emissiveFactor":[0.0,
		0.0,
		0.0],
		"alphaMode":"OPAQUE",
		"doubleSided":false,
		"name":""
	}]
}